HIERARCHY
ROOT Hips
{
 OFFSET 0.000000 0.000000 0.000000
 CHANNELS 6 Xposition Yposition Zposition Yrotation Xrotation Zrotation
 JOINT Chest
 {
  OFFSET 0.000000 9.585900 0.002600
  CHANNELS 3 Yrotation Xrotation Zrotation
  JOINT Chest2
  {
   OFFSET 0.000000 9.601200 -0.005300
   CHANNELS 3 Yrotation Xrotation Zrotation
   JOINT Chest3
   {
    OFFSET 0.000000 9.561800 0.000000
    CHANNELS 3 Yrotation Xrotation Zrotation
    JOINT Chest4
    {
     OFFSET 0.000000 9.552100 0.000000
     CHANNELS 3 Yrotation Xrotation Zrotation
     JOINT Neck
     {
      OFFSET 0.000000 14.453000 0.000000
      CHANNELS 3 Yrotation Xrotation Zrotation
      JOINT Head
      {
       OFFSET 0.000000 8.936500 -0.011300
       CHANNELS 3 Yrotation Xrotation Zrotation
       End Site
       {
        OFFSET 0.000000 17.073600 -0.006000
       }
      }
     }
     JOINT RightCollar
     {
      OFFSET -2.921100 9.558500 0.000000
      CHANNELS 3 Yrotation Xrotation Zrotation
      JOINT RightShoulder
      {
       OFFSET -13.519700 0.000000 0.000000
       CHANNELS 3 Yrotation Xrotation Zrotation
       JOINT RightElbow
       {
        OFFSET 0.000000 -29.696600 0.000000
        CHANNELS 3 Yrotation Xrotation Zrotation
        JOINT RightWrist
        {
         OFFSET 0.000000 -24.004700 0.000000
         CHANNELS 3 Yrotation Xrotation Zrotation
         End Site
         {
          OFFSET 0.000000 -17.728500 0.000000
         }
        }
       }
      }
     }
     JOINT LeftCollar
     {
      OFFSET 2.921100 9.558500 0.000000
      CHANNELS 3 Yrotation Xrotation Zrotation
      JOINT LeftShoulder
      {
       OFFSET 13.519700 0.000000 0.000000
       CHANNELS 3 Yrotation Xrotation Zrotation
       JOINT LeftElbow
       {
        OFFSET 0.000000 -29.696600 0.000000
        CHANNELS 3 Yrotation Xrotation Zrotation
        JOINT LeftWrist
        {
         OFFSET 0.000000 -24.004700 0.000000
         CHANNELS 3 Yrotation Xrotation Zrotation
         End Site
         {
          OFFSET 0.000000 -17.728500 0.000000
         }
        }
       }
      }
     }
    }
   }
  }
 }
 JOINT RightHip
 {
  OFFSET -7.771700 -0.012900 -0.001300
  CHANNELS 3 Yrotation Xrotation Zrotation
  JOINT RightKnee
  {
   OFFSET 0.000000 -40.869800 0.001200
   CHANNELS 3 Yrotation Xrotation Zrotation
   JOINT RightAnkle
   {
    OFFSET 0.000000 -39.717900 0.002100
    CHANNELS 3 Yrotation Xrotation Zrotation
    JOINT RightToe
    {
     OFFSET 0.000000 -4.965400 11.033500
     CHANNELS 3 Yrotation Xrotation Zrotation
     End Site
     {
      OFFSET 0.000000 -1.423100 5.872300
     }
    }
   }
  }
 }
 JOINT LeftHip
 {
  OFFSET 7.771700 -0.012900 -0.001300
  CHANNELS 3 Yrotation Xrotation Zrotation
  JOINT LeftKnee
  {
   OFFSET 0.000000 -40.869800 0.001200
   CHANNELS 3 Yrotation Xrotation Zrotation
   JOINT LeftAnkle
   {
    OFFSET 0.000000 -39.717900 0.002100
    CHANNELS 3 Yrotation Xrotation Zrotation
    JOINT LeftToe
    {
     OFFSET 0.000000 -4.965400 11.033500
     CHANNELS 3 Yrotation Xrotation Zrotation
     End Site
     {
      OFFSET 0.000000 -1.423100 5.872300
     }
    }
   }
  }
 }
}
MOTION
Frames: 9
Frame Time: 0.008333
0.000000 85.388000 0.000000 0.000000 -5.767877 0.000000 0.000000 11.653817 0.000000 0.000000 -5.885947 0.000000 0.000000 -0.000000 0.000000 0.000000 -0.000000 0.000000 0.000000 12.528835 0.000000 0.000000 0.711642 0.000000 0.000000 -0.000000 0.000000 0.000000 0.000000 -90.000000 0.000000 -2.309062 0.000000 0.000000 2.309062 0.000000 0.000000 -0.000000 0.000000 0.000000 -0.000000 90.000000 0.000000 -2.309062 0.000000 0.000000 2.309062 0.000000 0.000000 8.520406 0.000000 0.000000 1.905762 0.000000 -0.000000 -4.658285 0.000000 0.000000 -0.000000 0.000000 0.000000 8.520406 0.000000 0.000000 1.905762 0.000000 -0.000000 -4.658285 0.000000 0.000000 -0.000000 0.000000
-194.661306 57.795555 -63.035612 157.896248 -5.729065 0.288128 4.327050 5.324178 1.011485 0.137458 0.168169 0.006644 0.293821 0.416718 0.014839 3.776192 5.089538 0.343376 1.493250 19.197681 -0.970712 3.062000 -0.031933 -2.231144 1.637340 7.866184 0.520323 -5.579541 -8.371404 -5.286648 33.799179 -86.087170 -17.833569 -1.741879 1.802337 -21.006759 -4.411444 8.121594 -2.360912 19.377053 -4.547997 0.507856 67.433585 -80.900324 -93.920387 -2.834042 7.567515 11.162174 -15.172561 -65.793238 9.837517 -31.904692 72.167190 -32.383786 -3.293151 -6.653111 -1.337108 -0.373908 0.701449 -0.179264 -0.768825 -68.061950 19.196495 41.411137 66.601585 34.140008 -17.241791 -9.644663 3.206158 -0.061875 -0.891183 -0.024650
-194.662210 57.791869 -63.028466 157.883672 -5.748471 0.301038 4.321035 5.300525 0.999315 0.132677 0.168617 0.006398 0.299095 0.417355 0.014639 3.777615 5.094349 0.340646 1.486932 19.192654 -0.976378 3.068439 -0.014732 -2.231611 1.618586 7.873421 0.519028 -5.598422 -8.352603 -5.284011 33.974088 -86.082592 -18.068909 -1.741432 1.809629 -20.944850 -4.394616 8.131028 -2.350230 19.426306 -4.509742 0.481970 67.772661 -80.901359 -94.120287 -2.813625 7.585709 11.251889 -15.193882 -65.796301 9.852633 -31.898624 72.182900 -32.390948 -3.290283 -6.610041 -1.334092 -0.372329 0.664663 -0.189336 -0.730600 -68.045055 19.172802 41.406993 66.593559 34.133877 -17.257745 -9.615903 3.201512 -0.072466 -0.893646 -0.024922
-194.662719 57.787964 -63.022195 157.860995 -5.781862 0.318589 4.305669 5.269355 0.982479 0.147212 0.190917 0.007322 0.294880 0.418481 0.012532 3.771390 5.059226 0.330096 1.506491 19.237974 -0.969082 3.070052 -0.008748 -2.234622 1.577951 7.879698 0.527017 -5.542427 -8.285183 -5.293293 34.244938 -86.086976 -18.401642 -1.740305 1.824300 -20.913739 -4.363497 8.180183 -2.336149 19.544559 -4.469009 0.413988 67.992188 -80.940745 -94.271871 -2.796935 7.600264 11.338393 -15.155770 -65.777446 9.822951 -31.886138 72.187535 -32.379500 -3.290475 -6.597952 -1.345741 -0.363164 0.660009 -0.184431 -0.672850 -68.014133 19.137272 41.414712 66.582338 34.142339 -17.288848 -9.579122 3.194783 -0.043509 -0.902088 -0.021371
-194.659521 57.784295 -63.018228 157.825528 -5.841754 0.325137 4.315653 5.274483 0.982499 0.151907 0.202454 0.006754 0.297432 0.418946 0.013594 3.772498 5.064111 0.325430 1.518850 19.265760 -0.965051 3.045937 -0.049125 -2.243596 1.558164 7.881767 0.527874 -5.576749 -8.266746 -5.292633 34.403782 -86.087372 -18.551949 -1.736377 1.837720 -20.901442 -4.350798 8.188813 -2.328429 19.660345 -4.436460 0.348924 68.189270 -80.978010 -94.404040 -2.781329 7.612046 11.418843 -15.116391 -65.728303 9.805367 -31.864699 72.192831 -32.358538 -3.290134 -6.581336 -1.358814 -0.357825 0.650509 -0.178953 -0.625382 -67.954263 19.130935 41.415646 66.572439 34.141001 -17.276328 -9.536555 3.183590 -0.045333 -0.922472 -0.014534
-194.656444 57.780521 -63.012674 157.799288 -5.895495 0.330073 4.317476 5.273680 0.982457 0.161714 0.225043 0.006569 0.289016 0.407880 0.012297 3.778807 5.069731 0.323921 1.511612 19.259366 -0.970142 3.036823 -0.056913 -2.247507 1.540035 7.883916 0.527591 -5.673849 -8.268497 -5.289970 34.295093 -86.075354 -18.340586 -1.723478 1.846045 -20.918207 -4.337724 8.203899 -2.323964 19.745013 -4.419520 0.297261 68.416899 -81.001185 -94.544134 -2.766892 7.624082 11.489915 -15.082130 -65.683140 9.785422 -31.846964 72.195242 -32.337125 -3.292444 -6.570936 -1.362100 -0.355363 0.647109 -0.183296 -0.595073 -67.899505 19.133113 41.406949 66.565694 34.127981 -17.275295 -9.504914 3.179468 -0.044894 -0.940881 -0.012446
-194.654336 57.776940 -63.007640 157.782486 -5.951285 0.342103 4.317713 5.285848 0.975991 0.172629 0.258909 0.005775 0.263112 0.332434 0.012999 3.793653 5.117308 0.323111 1.504522 19.256252 -0.974066 2.997512 -0.122921 -2.264383 1.522578 7.886452 0.527716 -5.704121 -8.253253 -5.288093 34.549524 -86.065691 -18.602084 -1.719779 1.862769 -20.886956 -4.323267 8.235063 -2.321890 19.815989 -4.421767 0.243098 68.643191 -81.020462 -94.679386 -2.756012 7.636108 11.553512 -15.043854 -65.638904 9.751103 -31.836634 72.200641 -32.330577 -3.291836 -6.563912 -1.360449 -0.361913 0.644983 -0.187694 -0.550687 -67.841972 19.108955 41.391444 66.562366 34.110369 -17.271167 -9.481522 3.178925 -0.052719 -0.937417 -0.016338
-194.654311 57.773359 -63.001182 157.779232 -5.995070 0.361922 4.304019 5.286030 0.959572 0.171375 0.259887 0.005790 0.268717 0.343239 0.012370 3.789603 5.111286 0.319396 1.499216 19.250681 -0.977561 2.989405 -0.135019 -2.270277 1.504362 7.889661 0.529684 -5.728896 -8.236837 -5.286416 34.864697 -86.055321 -18.924398 -1.716036 1.880773 -20.858671 -4.315171 8.243664 -2.314489 19.882453 -4.403787 0.192826 68.872660 -81.036930 -94.816451 -2.747835 7.647908 11.616368 -15.009813 -65.610776 9.705808 -31.831114 72.208692 -32.330314 -3.289612 -6.557375 -1.364687 -0.369903 0.642507 -0.187542 -0.493761 -67.796843 19.059806 41.365021 66.550812 34.081436 -17.290572 -9.433679 3.172105 -0.061651 -0.945724 -0.015503
-194.650428 57.770206 -62.995514 157.748537 -6.052157 0.365419 4.319279 5.298541 0.963487 0.173624 0.259207 0.005258 0.277886 0.377551 0.012005 3.786156 5.102811 0.317470 1.484480 19.224882 -0.984949 2.981442 -0.148422 -2.275783 1.481393 7.874886 0.531988 -5.750841 -8.219799 -5.286257 35.064825 -86.046347 -19.110488 -1.703638 1.891466 -20.856766 -4.314199 8.234374 -2.311849 19.941017 -4.394094 0.148614 69.105154 -81.054684 -94.957476 -2.739593 7.661073 11.681081 -14.958931 -65.559622 9.675749 -31.813479 72.203782 -32.290791 -3.317072 -6.544284 -1.398427 -0.339009 0.638894 -0.175742 -0.456274 -67.736370 19.070069 41.327980 66.543071 34.038010 -17.299424 -9.375897 3.152320 -0.070907 -0.961161 -0.002206
